PathFileType	4	(X/Y/Z)	SUBJ59_0_static_RCNL2025.trc
DataRate	CameraRate	NumFrames	NumMarkers	Units	OrigDataRate	OrigDataStartFrame	OrigNumFrames
100	100	12	25	mm	100	29	72
Frame#	Time	R_Shoulder			L_Shoulder			C7			J_Notch			R_Elbow			L_Elbow			R_Wrist			L_Wrist			R_Asis			L_Asis			Sacral			Thoracic			Sternum			R_Thigh_Lateral			R_Knee_Lateral			R_Shank_Lateral			R_Ankle_Lateral			R_Heel			R_Toe			L_Thigh_Lateral			L_Knee_Lateral			L_Shank_Lateral			L_Ankle_Lateral			L_Heel			L_Toe		
		X1	Y1	Z1	X2	Y2	Z2	X3	Y3	Z3	X4	Y4	Z4	X5	Y5	Z5	X6	Y6	Z6	X7	Y7	Z7	X8	Y8	Z8	X9	Y9	Z9	X10	Y10	Z10	X11	Y11	Z11	X12	Y12	Z12	X13	Y13	Z13	X14	Y14	Z14	X15	Y15	Z15	X16	Y16	Z16	X17	Y17	Z17	X18	Y18	Z18	X19	Y19	Z19	X20	Y20	Z20	X21	Y21	Z21	X22	Y22	Z22	X23	Y23	Z23	X24	Y24	Z24	X25	Y25	Z25
29	0.28000000	-247.045990	1458.196289	-16.173933	-258.839417	1489.110840	-419.044647	-356.049377	1557.283203	-209.308243	-193.782257	1466.182495	-222.989609	-286.362823	1141.598999	71.242348	-246.131790	1146.041626	-516.069031	-257.440613	863.098969	74.345646	-185.584221	887.817108	-486.599869	-180.418549	997.861755	-99.357986	-180.178787	995.299072	-327.779724	-395.889069	1032.084473	-218.168182	-412.472412	1341.056885	-235.628799	-131.889771	1275.670532	-233.288162	-292.051300	609.053223	-11.208651	-304.207916	517.860046	-63.137753	-345.825928	321.570160	19.011074	-375.494415	69.446487	-88.316460	-411.101654	57.312420	-135.547424	-211.999878	44.241688	-120.060730	-303.405334	612.103149	-402.607513	-307.482117	503.822876	-343.056152	-343.412384	309.123352	-404.697113	-372.785034	81.854347	-322.133728	-413.729340	58.494751	-267.076904	-209.749115	39.226597	-295.494171
30	0.29000000	-247.039291	1458.162231	-16.176764	-258.890717	1489.087524	-419.088593	-356.132690	1557.295532	-209.245605	-193.780716	1466.158569	-223.038300	-286.343414	1141.584961	71.219002	-246.134384	1146.057251	-516.131897	-257.520943	863.112579	74.478968	-185.581474	887.814545	-486.597092	-180.444885	997.867554	-99.342308	-180.155228	995.355408	-327.812256	-395.887024	1032.081299	-218.171204	-412.455414	1341.020508	-235.650467	-131.865952	1275.723389	-233.319977	-292.048462	609.112854	-11.181093	-304.236023	517.857849	-63.111572	-345.852722	321.647095	19.043716	-375.511902	69.339417	-88.288994	-411.098419	57.319782	-135.535889	-212.036209	44.252625	-120.082977	-303.518158	612.073547	-402.590057	-307.550812	503.867706	-343.031067	-343.444153	309.100403	-404.670288	-372.825745	81.855072	-322.153015	-413.728760	58.485386	-267.072388	-209.856781	39.231686	-295.425049
31	0.30000000	-247.039581	1458.175293	-16.176601	-258.832336	1489.092773	-419.060150	-356.063995	1557.318115	-209.284119	-193.782059	1466.148315	-223.050720	-286.354980	1141.598267	71.237190	-246.134888	1146.031738	-516.121887	-257.563995	863.148865	74.478712	-185.574112	887.818604	-486.595947	-180.475082	997.869690	-99.406975	-180.026199	995.328796	-327.789032	-395.884613	1032.077393	-218.175171	-412.456329	1341.010864	-235.657776	-131.856003	1275.729858	-233.325775	-292.178680	609.199768	-11.183970	-304.237793	517.855896	-63.136230	-345.826782	321.662354	18.988295	-375.527954	69.354866	-88.284386	-411.076843	57.260155	-135.582031	-211.975479	44.194721	-120.102661	-303.527069	612.076111	-402.579468	-307.482819	503.803680	-343.081268	-343.535858	309.123535	-404.696167	-372.753723	81.813095	-322.180695	-413.728241	58.488670	-267.071198	-209.854294	39.216301	-295.408539
32	0.31000000	-246.977585	1458.196655	-16.227932	-258.888580	1489.135254	-419.047760	-356.495056	1557.588257	-209.345016	-193.778091	1466.154175	-223.023285	-286.243500	1141.547974	71.264130	-246.202179	1146.140869	-516.189148	-257.503716	863.093933	74.496927	-185.576492	887.849030	-486.681381	-180.432602	997.826416	-99.269676	-180.126923	995.312195	-327.778473	-395.872406	1032.074463	-218.191101	-412.457428	1341.011597	-235.657135	-131.861343	1275.716919	-233.375824	-292.062561	609.063843	-11.200535	-304.154449	517.943848	-63.125969	-345.838989	321.654785	19.016306	-375.487061	69.442490	-88.326958	-411.082764	57.301247	-135.572433	-211.966263	44.189602	-120.106171	-303.526764	612.044373	-402.569916	-307.531433	503.813354	-343.115875	-343.505341	309.098694	-404.672546	-372.750885	81.925156	-322.189484	-413.702087	58.573589	-267.080627	-209.780319	39.285877	-295.481750
33	0.32000000	-246.982544	1458.215942	-16.222055	-258.997955	1489.127441	-419.046692	-356.169708	1557.369995	-209.260132	-193.783020	1466.149048	-223.044601	-286.275909	1141.562012	71.289185	-246.202423	1146.107422	-516.076660	-257.606461	863.177368	74.644634	-185.482330	887.876923	-486.709625	-180.329742	997.897278	-99.320930	-180.193039	995.284424	-327.744171	-395.919983	1032.143799	-218.132446	-412.468292	1340.971558	-235.655975	-131.858765	1275.745117	-233.353363	-292.013672	609.027710	-11.235670	-304.091187	517.965637	-63.117584	-345.849640	321.714020	18.958078	-375.470123	69.413124	-88.286453	-411.100494	57.312511	-135.549622	-211.993622	44.237499	-120.066170	-303.525269	612.104675	-402.561340	-307.488007	503.810425	-343.086182	-343.433136	309.104523	-404.680695	-372.799957	81.935432	-322.172058	-413.702240	58.558979	-267.100037	-209.757675	39.204346	-295.452972
34	0.33000000	-246.965775	1458.220093	-16.241072	-259.002075	1489.118774	-419.045288	-356.121826	1557.397095	-209.247116	-193.890701	1466.158203	-223.085785	-286.337128	1141.701904	71.342506	-246.200684	1146.125366	-516.123413	-257.607742	863.215729	74.691309	-185.512665	887.929474	-486.713287	-180.320847	997.944458	-99.370995	-180.164810	995.314392	-327.797913	-395.937256	1032.211914	-218.098007	-412.581024	1341.118164	-235.535919	-131.858200	1275.747559	-233.348160	-292.031769	609.107849	-11.208028	-304.156281	517.876099	-63.131912	-345.791290	321.671509	18.953419	-375.444702	69.417114	-88.306702	-411.102051	57.312248	-135.547958	-212.022171	44.253937	-120.018608	-303.524963	612.103760	-402.559204	-307.541718	503.888519	-343.038666	-343.431885	309.133240	-404.683197	-372.744202	81.954369	-322.200989	-413.699493	58.575592	-267.079773	-209.771561	39.230949	-295.470123
35	0.34000000	-246.963364	1458.288574	-16.212673	-259.020905	1489.133301	-419.036713	-356.169128	1557.357666	-209.195724	-193.914322	1466.164307	-223.089478	-286.296600	1141.652222	71.426712	-246.201462	1146.171509	-516.160950	-257.638611	863.210724	74.718739	-185.481819	887.927399	-486.703201	-180.297165	997.922852	-99.341721	-180.131119	995.367065	-327.843933	-396.020538	1032.119141	-218.044434	-412.612061	1341.071411	-235.499756	-131.856308	1275.762085	-233.326996	-292.007233	609.078552	-11.216380	-304.236237	517.852417	-63.112175	-345.841125	321.593567	19.011559	-375.477509	69.475082	-88.323814	-411.100830	57.320690	-135.532364	-212.011887	44.243698	-120.045197	-303.539490	612.124329	-402.642761	-307.473022	503.868744	-342.984467	-343.429932	309.087708	-404.715637	-372.821106	81.879135	-322.131378	-413.717651	58.695095	-267.000946	-209.804932	39.231468	-295.469788
36	0.35000000	-246.971649	1458.264648	-16.239693	-259.053894	1489.102905	-419.068634	-356.203430	1557.317993	-209.297104	-193.894379	1466.159546	-223.104385	-286.254333	1141.645142	71.428307	-246.199936	1146.189819	-516.197266	-257.691208	863.227814	74.797705	-185.479889	887.935822	-486.762131	-180.464584	997.852966	-99.213409	-180.194229	995.467896	-327.880463	-396.025269	1032.112427	-218.042114	-412.606781	1341.063354	-235.504044	-131.835281	1275.802490	-233.354004	-291.959839	609.024109	-11.214382	-304.256012	517.851501	-63.138153	-345.826111	321.619507	18.983898	-375.530365	69.388100	-88.307358	-411.089722	57.317577	-135.547379	-211.987915	44.199711	-120.079277	-303.528198	612.040771	-402.577301	-307.522705	503.883575	-343.010101	-343.410797	309.151337	-404.687958	-372.839050	81.895309	-322.109436	-413.691498	58.615055	-267.074951	-209.849548	39.228004	-295.459167
37	0.36000000	-247.014404	1458.267456	-16.226151	-259.118103	1489.114014	-419.085541	-356.282318	1557.355469	-209.242554	-193.896042	1466.185791	-223.040649	-286.307312	1141.607544	71.448112	-246.209702	1146.158325	-516.215942	-257.626259	863.252075	74.812090	-185.406891	887.920654	-486.815445	-180.581909	997.824341	-99.372841	-180.128021	995.409973	-327.796021	-396.022095	1032.113892	-218.044250	-412.556488	1340.955811	-235.577759	-131.804504	1275.887695	-233.364914	-291.978973	609.144287	-11.213840	-304.324585	517.870239	-63.203640	-345.839111	321.657257	19.010931	-375.537903	69.380188	-88.301208	-411.088196	57.307251	-135.566101	-211.975113	44.184502	-120.101738	-303.511261	612.050781	-402.621368	-307.486725	503.768311	-342.995422	-343.415588	309.160461	-404.658508	-372.775909	81.941315	-322.182831	-413.699036	58.580299	-267.091400	-209.774567	39.244556	-295.486572
38	0.37000000	-246.942795	1458.329712	-16.262287	-259.102142	1489.162476	-419.109650	-356.216919	1557.359131	-209.276031	-193.874252	1466.202515	-223.108261	-286.222778	1141.769409	71.535576	-246.205322	1146.152100	-516.144775	-257.633141	863.280914	74.913149	-185.349838	887.932037	-486.844604	-180.644562	997.821777	-99.469681	-180.211960	995.442383	-327.826874	-395.976318	1032.134766	-218.099792	-412.562622	1340.973633	-235.563370	-131.931274	1275.821655	-233.347748	-292.047607	609.181274	-11.180143	-304.300629	517.879456	-63.152973	-345.800629	321.697906	18.993547	-375.460236	69.408890	-88.353668	-411.088104	57.306499	-135.566971	-211.964447	44.176338	-120.108566	-303.436859	612.096558	-402.648621	-307.533966	503.894409	-343.030090	-343.430176	309.160187	-404.649536	-372.775269	81.891983	-322.180695	-413.688843	58.568657	-267.109985	-209.755981	39.211498	-295.501892
39	0.38000000	-246.937454	1458.348022	-16.255373	-259.151001	1489.201172	-419.075226	-356.326019	1557.421509	-209.182144	-193.873184	1466.234985	-223.099640	-286.215210	1141.778564	71.562378	-246.196548	1146.161987	-516.128540	-257.604988	863.298096	74.971727	-185.292725	887.981079	-486.802826	-180.692810	997.768127	-99.453362	-180.213333	995.468201	-327.889954	-395.979187	1032.190674	-218.079559	-412.675140	1341.023438	-235.471329	-131.900024	1275.878418	-233.283859	-291.950684	609.171692	-11.229191	-304.399261	517.786133	-63.214279	-345.782318	321.664978	18.981483	-375.507202	69.483971	-88.291580	-411.098328	57.323879	-135.546463	-212.010849	44.240875	-120.040520	-303.542023	612.105286	-402.645294	-307.462891	503.888611	-343.033447	-343.503204	309.177185	-404.643646	-372.801575	81.923378	-322.107086	-413.694336	58.613525	-267.071381	-209.773392	39.262978	-295.464752
40	0.39000000	-246.961426	1458.336792	-16.227776	-259.246063	1489.235229	-419.097687	-356.703156	1557.636108	-209.211090	-193.987549	1466.215454	-223.179993	-286.319794	1141.864258	71.613426	-246.202393	1146.167114	-516.173828	-257.673050	863.355469	75.085861	-185.262260	888.061981	-486.812332	-180.666153	997.809692	-99.465500	-180.219315	995.411682	-327.862091	-396.027771	1032.236084	-218.025574	-412.692505	1341.017090	-235.447266	-131.993103	1275.887939	-233.320511	-291.922546	609.162476	-11.262257	-304.500885	517.787170	-63.233360	-345.800018	321.722168	19.015257	-375.503235	69.474663	-88.315056	-411.100220	57.325844	-135.544434	-211.994064	44.231789	-120.062172	-303.450073	612.113464	-402.610962	-307.466156	503.885254	-342.991760	-343.475739	309.162689	-404.613007	-372.886108	82.051308	-321.991394	-413.718750	58.699539	-266.998413	-209.768127	39.236012	-295.479614
